<svg id="Capa_1" enable-background="new 0 0 512 512" height="512" viewBox="0 0 512 512" width="512" xmlns="http://www.w3.org/2000/svg"><g><path d="m512 512h-512v-201h121.205c24.737 0 48.868 4.8 71.722 14.267 22.854 9.466 43.311 23.135 60.803 40.627 29.732 29.731 69.263 46.106 111.311 46.106h146.959z" fill="#fed330"/><path d="m406.333 19.683c-16.293-16.293-38.971-22.79-63.859-18.293-22.31 4.031-45.116 16.77-64.217 35.871-8.88 8.88-16.364 18.566-22.258 28.626-5.894-10.06-13.378-19.746-22.258-28.626-19.101-19.101-41.908-31.84-64.218-35.871-24.888-4.498-47.567 2-63.86 18.293l-10.605 10.607 145.654 145.655 10.606-10.607c1.665-1.665 3.221-3.399 4.68-5.193 1.459 1.794 3.016 3.528 4.68 5.193l10.606 10.607 145.656-145.655z" fill="#8adb53"/><path d="m406.333 19.683c-16.293-16.293-38.971-22.79-63.859-18.293-22.31 4.031-45.116 16.77-64.217 35.871-8.88 8.88-16.364 18.566-22.258 28.626v94.258c1.459 1.794 3.016 3.528 4.68 5.193l10.606 10.607 145.655-145.655z" fill="#4fc16e"/><path d="m255.996 169.732h-205.987v-15c0-23.042 11.443-43.672 32.221-58.091 18.626-12.925 43.76-20.043 70.773-20.043s52.147 7.118 70.773 20.043c20.778 14.418 32.221 35.049 32.221 58.091v15z" fill="#4fc16e"/><path d="m116.27 300.386-10.606-10.607c-16.293-16.293-22.79-38.972-18.293-63.86 4.031-22.31 16.77-45.116 35.871-64.216 19.101-19.101 41.907-31.84 64.217-35.871 24.889-4.497 47.567 2 63.86 18.293l10.607 10.606z" fill="#8adb53"/><path d="m461.983 169.732h-205.987v-15c0-23.042 11.443-43.672 32.221-58.091 18.626-12.925 43.76-20.043 70.773-20.043s52.147 7.118 70.773 20.043c20.778 14.418 32.221 35.049 32.221 58.091v15z" fill="#369151"/><path d="m395.727 300.386-145.655-145.654 10.607-10.606c16.293-16.293 38.972-22.79 63.86-18.293 22.31 4.031 45.116 16.77 64.217 35.871s31.84 41.906 35.871 64.216c4.497 24.888-2 47.567-18.292 63.86z" fill="#4fc16e"/><path d="m305.998 442.003h-100v-123.862l16.01-15-16.01-15v-31.911l16.01-15.227-16.01-14.773v-31.912l16.01-15-16.01-15v-11.902c0-27.57 22.43-50 50-50s50 22.43 50 50v11.902l-16.01 15 16.01 15v31.912l-16.01 14.773 16.01 15.227v31.912l-16.01 15 16.01 15z" fill="#ce7000"/><path d="m305.998 152.416c0-27.57-22.43-50-50-50v339.586h50v-123.861l-16.01-15 16.01-15v-31.911l-16.01-15.227 16.01-14.773v-31.912l-16.01-15 16.01-15z" fill="#823c08"/><g fill="#f9b700"><path d="m205.998 164.318h100v30h-100z"/><path d="m205.998 226.23h100v30h-100z"/><path d="m205.998 288.141h100v30h-100z"/></g><path d="m255.998 164.318h50v30h-50z" fill="#f49d14"/><path d="m255.998 226.23h50v30h-50z" fill="#f49d14"/><path d="m255.998 288.141h50v30h-50z" fill="#f49d14"/><path d="m512 512h-512v-100h146.959c42.048 0 81.579-16.375 111.311-46.106 17.492-17.492 37.949-31.161 60.803-40.627 22.854-9.467 46.985-14.267 71.722-14.267h121.205z" fill="#f9ecd7"/><path d="m512 311h-121.205c-24.737 0-48.868 4.8-71.722 14.267-22.854 9.466-43.311 23.135-60.803 40.627-.749.749-1.509 1.484-2.271 2.216v143.89h256v-201z" fill="#f5d7b0"/><path d="m411.333 412h100.667v30h-100.667z" fill="#f9b700"/><path d="m350.769 412h30.282v30h-30.282z" fill="#f9b700"/></g></svg>